<svg width="128" height="128" viewBox="0 0 128 128" fill="none" xmlns="http://www.w3.org/2000/svg">
<path d="M126 64C126 98.2417 98.2417 126 64 126C29.7583 126 2 98.2417 2 64C2 29.7583 29.7583 2 64 2C98.2417 2 126 29.7583 126 64ZM10.3092 64C10.3092 93.6526 34.3474 117.691 64 117.691C93.6526 117.691 117.691 93.6526 117.691 64C117.691 34.3474 93.6526 10.3092 64 10.3092C34.3474 10.3092 10.3092 34.3474 10.3092 64Z" fill="#00D84A"/>
<path d="M126 64C126 98.2417 98.2417 126 64 126C29.7583 126 2 98.2417 2 64C2 29.7583 29.7583 2 64 2C98.2417 2 126 29.7583 126 64ZM10.3092 64C10.3092 93.6526 34.3474 117.691 64 117.691C93.6526 117.691 117.691 93.6526 117.691 64C117.691 34.3474 93.6526 10.3092 64 10.3092C34.3474 10.3092 10.3092 34.3474 10.3092 64Z" stroke="#00846C" stroke-width="3" style="mix-blend-mode:darken"/>
<g filter="url(#filter0_d_5_2)">
<rect x="27.6398" y="41" width="60.8575" height="43.2177" rx="9" fill="#67F68F"/>
<path d="M23.8762 97.3851C22.3407 98.8302 19.9034 97.2229 20.6269 95.2424L28.7967 72.8793C29.2397 71.6667 30.6985 71.1852 31.7762 71.896L40.9439 77.9414C42.0217 78.6522 42.1538 80.1827 41.2136 81.0675L23.8762 97.3851Z" fill="#67F68F"/>
<line x1="42" y1="52.5" x2="83" y2="52.5" stroke="black"/>
<line x1="42" y1="60.5" x2="74" y2="60.5" stroke="black"/>
<line x1="42" y1="68.5" x2="62" y2="68.5" stroke="black"/>
</g>
<g filter="url(#filter1_d_5_2)">
<g filter="url(#filter2_d_5_2)">
<rect x="51" y="28" width="57.5393" height="40.8612" rx="9" fill="#5DEFCC"/>
<path d="M115.589 80.5209C116.313 82.5015 113.875 84.1087 112.34 82.6635L96.3836 67.6449C95.4435 66.76 95.5756 65.2296 96.6534 64.5189L105.091 58.9552C106.169 58.2445 107.628 58.726 108.071 59.9387L115.589 80.5209Z" fill="#5DEFCC"/>
</g>
<line x1="57" y1="40.5" x2="102" y2="40.5" stroke="black"/>
<line x1="68" y1="49.5" x2="102" y2="49.5" stroke="black"/>
<line x1="77" y1="57.5" x2="102" y2="57.5" stroke="black"/>
</g>
<defs>
<filter id="filter0_d_5_2" x="16.4958" y="41" width="76.0016" height="64.9408" filterUnits="userSpaceOnUse" color-interpolation-filters="sRGB">
<feFlood flood-opacity="0" result="BackgroundImageFix"/>
<feColorMatrix in="SourceAlpha" type="matrix" values="0 0 0 0 0 0 0 0 0 0 0 0 0 0 0 0 0 0 127 0" result="hardAlpha"/>
<feOffset dy="4"/>
<feGaussianBlur stdDeviation="2"/>
<feComposite in2="hardAlpha" operator="out"/>
<feColorMatrix type="matrix" values="0 0 0 0 0 0 0 0 0 0 0 0 0 0 0 0 0 0 0.25 0"/>
<feBlend mode="normal" in2="BackgroundImageFix" result="effect1_dropShadow_5_2"/>
<feBlend mode="normal" in="SourceGraphic" in2="effect1_dropShadow_5_2" result="shape"/>
</filter>
<filter id="filter1_d_5_2" x="40" y="28" width="86.7202" height="77.2193" filterUnits="userSpaceOnUse" color-interpolation-filters="sRGB">
<feFlood flood-opacity="0" result="BackgroundImageFix"/>
<feColorMatrix in="SourceAlpha" type="matrix" values="0 0 0 0 0 0 0 0 0 0 0 0 0 0 0 0 0 0 127 0" result="hardAlpha"/>
<feOffset dy="11"/>
<feGaussianBlur stdDeviation="5.5"/>
<feComposite in2="hardAlpha" operator="out"/>
<feColorMatrix type="matrix" values="0 0 0 0 0 0 0 0 0 0 0 0 0 0 0 0 0 0 0.25 0"/>
<feBlend mode="normal" in2="BackgroundImageFix" result="effect1_dropShadow_5_2"/>
<feBlend mode="normal" in="SourceGraphic" in2="effect1_dropShadow_5_2" result="shape"/>
</filter>
<filter id="filter2_d_5_2" x="47" y="28" width="72.7202" height="63.2193" filterUnits="userSpaceOnUse" color-interpolation-filters="sRGB">
<feFlood flood-opacity="0" result="BackgroundImageFix"/>
<feColorMatrix in="SourceAlpha" type="matrix" values="0 0 0 0 0 0 0 0 0 0 0 0 0 0 0 0 0 0 127 0" result="hardAlpha"/>
<feOffset dy="4"/>
<feGaussianBlur stdDeviation="2"/>
<feComposite in2="hardAlpha" operator="out"/>
<feColorMatrix type="matrix" values="0 0 0 0 0 0 0 0 0 0 0 0 0 0 0 0 0 0 0.25 0"/>
<feBlend mode="normal" in2="BackgroundImageFix" result="effect1_dropShadow_5_2"/>
<feBlend mode="normal" in="SourceGraphic" in2="effect1_dropShadow_5_2" result="shape"/>
</filter>
</defs>
</svg>
